Simulation
nRows=19
nColumns=15
endheader
time  TH_x TH_y TH_z SC_y  SC_z  SC_x  AC_y  AC_z  AC_x  GH_y  GH_z  GH_yy  EL_x  PS_y
2.8725  0.000000  0.000000  0.000000  -47.45886308584408  10.285158505411877  10.789395310130264  46.557561753661716  -4.442406082653765  -0.6942160593097854  48.212864438598395  59.99454541807833  -32.24687306725555  20.166905982524995  120.000000
2.92995  0.000000  0.000000  0.000000  -44.40088573033793  -2.9952570411198507  3.6833211651809994  54.58651515225278  -8.706553268024217  2.8450280606838656  33.62290144496019  70.97917841054141  -29.53334662827771  20.395999291242905  120.000000
2.9874  0.000000  0.000000  0.000000  -38.61209480263953  -5.3286816067551745  -1.2719248816024329  48.727486759306835  -7.482890944935673  -0.025467852271616534  25.950275835022506  63.31394523871074  -43.88049888827321  28.587243514630376  120.000000
3.0448500000000003  0.000000  0.000000  0.000000  -39.20235387596938  1.0646173567971513  -9.308083087095985  57.053377966794265  4.690432754753724  14.865488483335625  20.891039783254225  40.163790709465374  -39.103502498055036  26.52944004122577  120.000000
3.1023  0.000000  0.000000  0.000000  -40.4364812633388  -0.48850089422050463  -15.021664039503642  64.75977863336614  1.0373372001621786  24.74088848131657  11.798294896734838  53.47345076064268  -10.50273076983185  25.089158004797547  120.000000
3.15975  0.000000  0.000000  0.000000  -39.386010236051156  0.8182713953049634  -10.29593150725287  58.4244852990136  -3.6621687692749108  19.2850427030531  18.76819172878704  48.93194681217578  -7.412677908212322  28.417794499409776  120.000000
3.2172  0.000000  0.000000  0.000000  -38.73023093492872  -2.0049042968901283  -13.970008390013561  63.74168407587222  -0.8324876071931535  22.687642001696627  6.91620433630979  50.46524269402568  14.022353418969498  26.774310574181442  120.000000
3.2746500000000003  0.000000  0.000000  0.000000  -35.72633533573708  -6.038804509691707  -14.798617997861436  55.303218799947615  -6.182749217073324  16.78245318752592  20.881621107988092  53.10189139428708  -3.929575273233091  21.862662290579195  120.000000
3.3321  0.000000  0.000000  0.000000  -34.32296628660943  -8.873537637139139  -9.169174412564882  52.29553318471442  -6.596913980122691  6.412297375589515  23.66825310429384  61.99706573569544  -39.514283691493425  20.262459500329836  120.000000
3.38955  0.000000  0.000000  0.000000  -45.85319021484579  -9.07245342764069  -2.953237497197703  64.12360055581198  2.2026254443368294  7.953778869332591  24.97157922525342  46.35848928471894  -40.22251559782  21.16749925758135  120.000000
3.447  0.000000  0.000000  0.000000  -52.323374957729186  1.7088853212409783  1.4973049127420721  62.57617562660647  2.226073905259777  10.297197267796381  42.67582980454846  29.93311304118198  -35.347278909021966  24.814004544926178  120.000000
3.5044500000000003  0.000000  0.000000  0.000000  -52.50752352914276  8.969897128654322  5.4316791338070285  65.6069600739096  -1.4616698597013489  20.261214265000135  18.027900570741952  15.86857545950585  -0.5179153080688834  29.007927733506076  120.000000
3.5619  0.000000  0.000000  0.000000  -50.65556853880362  2.953313664456517  1.823266534070831  64.74681500819769  0.563817599581776  13.803386329884647  43.781493254105904  17.18545945665503  -26.477213605111373  22.937534323497353  120.000000
3.61935  0.000000  0.000000  0.000000  -43.60382838841503  -1.326401748656969  -4.412844017660477  49.562712679230096  -1.2284385536987426  4.042377230640118  74.23744428104001  30.40915237330404  -60.00585226405436  19.18959851807193  120.000000
3.6768  0.000000  0.000000  0.000000  -37.78140271497635  -3.3082051233673826  -10.342225576948945  54.083045773479355  -0.08244276485706421  9.772945057824856  51.011065746651084  26.462180004466827  -53.4429924212036  18.69197318227281  120.000000
3.7342500000000003  0.000000  0.000000  0.000000  -34.56336213052184  -4.829444537470932  -13.807569091738188  58.76457587146211  -3.4661267549841472  18.881152182430363  9.05003694421304  28.31708895614889  -13.625315677902087  19.234006367631405  120.000000
3.7917  0.000000  0.000000  0.000000  -35.406305152544114  -5.6888119372287855  -15.85015784019257  57.13350639572805  -4.800571868764608  17.48895865318814  3.9263873505967175  27.378052455435338  -12.170180910666517  26.25066749637266  120.000000
3.84915  0.000000  0.000000  0.000000  -42.31268073792161  -4.33288941157095  -6.194057361847184  63.598487876933454  -5.127203588940412  17.046686272957754  -18.683373101601116  17.95533551418049  4.61833510826863  29.040557920672864  120.000000
3.9066  0.000000  0.000000  0.000000  -46.731320988044644  0.9668782395096729  -0.47039974321509953  68.01179142269362  -2.497033454405239  18.14146901209052  -29.117429347370024  11.982230283089821  27.228500930552944  18.652021744733382  120.000000
